HIERARCHY
ROOT Hips
{
  OFFSET -31.5692 30.0904 122.763
  CHANNELS 6 Xposition Yposition Zposition Zrotation Xrotation Yrotation
  JOINT LeftUpLeg
  {
    OFFSET 8.64259 1.95398 -2.38835
    CHANNELS 3 Zrotation Xrotation Yrotation
    JOINT LeftLeg
    {
      OFFSET 43.7702 0 0
      CHANNELS 3 Zrotation Xrotation Yrotation
      JOINT LeftFoot
      {
        OFFSET 40.6238 0 0
        CHANNELS 3 Zrotation Xrotation Yrotation
        JOINT LeftToeBase
        {
          OFFSET 12.7242 0 0
          CHANNELS 3 Zrotation Xrotation Yrotation
          End Site
          {
            OFFSET 0 0 0
          }
        }
      }
    }
  }
  JOINT RightUpLeg
  {
    OFFSET -8.2249 1.95398 -2.59336
    CHANNELS 3 Zrotation Xrotation Yrotation
    JOINT RightLeg
    {
      OFFSET 43.5653 0 0
      CHANNELS 3 Zrotation Xrotation Yrotation
      JOINT RightFoot
      {
        OFFSET 40.6238 0 0
        CHANNELS 3 Zrotation Xrotation Yrotation
        JOINT RightToeBase
        {
          OFFSET 12.7242 0 0
          CHANNELS 3 Zrotation Xrotation Yrotation
          End Site
          {
            OFFSET 0 0 0
          }
        }
      }
    }
  }
  JOINT Spine
  {
    OFFSET 0.165834 0.87714 6.61349
    CHANNELS 3 Zrotation Xrotation Yrotation
    JOINT Spine1
    {
      OFFSET 7.38963 1.71661e-005 0
      CHANNELS 3 Zrotation Xrotation Yrotation
      JOINT Spine2
      {
        OFFSET 11.9445 1.14441e-005 0
        CHANNELS 3 Zrotation Xrotation Yrotation
        JOINT Spine3
        {
          OFFSET 14.7254 4.19617e-005 0
          CHANNELS 3 Zrotation Xrotation Yrotation
          JOINT Spine4
          {
            OFFSET 10.9679 0 0
            CHANNELS 3 Zrotation Xrotation Yrotation
            JOINT RightShoulder
            {
              OFFSET 2.46616 -1.6653 3.69651
              CHANNELS 3 Zrotation Xrotation Yrotation
              JOINT RightArm
              {
                OFFSET 13.0012 0 0
                CHANNELS 3 Zrotation Xrotation Yrotation
                JOINT RightForeArm
                {
                  OFFSET 28.7848 1.62311e-005 0
                  CHANNELS 3 Zrotation Xrotation Yrotation
                  JOINT RightHand
                  {
                    OFFSET 26.5688 1.62095e-005 0
                    CHANNELS 3 Zrotation Xrotation Yrotation
                    End Site
                    {
                      OFFSET 0 0 0
                    }
                  }
                }
              }
            }
            JOINT LeftShoulder
            {
              OFFSET 2.38034 -1.29275 -3.7523
              CHANNELS 3 Zrotation Xrotation Yrotation
              JOINT LeftArm
              {
                OFFSET 16.3182 6.07031e-005 0
                CHANNELS 3 Zrotation Xrotation Yrotation
                JOINT LeftForeArm
                {
                  OFFSET 27.0901 0 0
                  CHANNELS 3 Zrotation Xrotation Yrotation
                  JOINT LeftHand
                  {
                    OFFSET 24.5451 1.51738e-005 0
                    CHANNELS 3 Zrotation Xrotation Yrotation
                    End Site
                    {
                      OFFSET 0 0 0
                    }
                  }
                }
              }
            }
            JOINT Neck
            {
              OFFSET 5.0226 -0.0266342 0
              CHANNELS 3 Zrotation Xrotation Yrotation
              JOINT Head
              {
                OFFSET 6.69364 2.86102e-005 0
                CHANNELS 3 Zrotation Xrotation Yrotation
                End Site
                {
                  OFFSET 0 0 0
                }
              }
            }
          }
        }
      }
    }
  }
}
MOTION
Frames:	6
Frame Time:	0.0416667
25.72 101.561 12.896 -157.445 -81.028 -158.376 -171.625 -5.27783 91.109 -12.7528 -1.17169 -0.498528 70.1948 5.99852 -3.77705 20.5211 -7.85135 8.67685 171.56 -3.64406 87.1683 -15.3775 -11.609 -1.67829 67.2302 -4.5172 0.57449 28.8814 -0.441128 1.97068 0.309446 7.62427 -90.0429 11.6258 0.595501 -0.147316 -0.0449942 0.58844 -0.173379 -22.5813 0.612241 0.0384749 -2.5686 0.612252 0.0384881 89.7695 -31.0364 -106.818 39.1478 -7.2488 -4.69109 5.39301 -31.6964 -15.0313 -21.6559 -0.603947 -7.83163 -86.7813 -51.1698 83.7413 -26.6901 11.2897 -11.1693 -4.71761 4.77932 -0.008241 8.35415 -0.984465 -15.5962 5.03513 -1.50866 -1.06569 -5.30555 -1.31762 1.8298 
25.5391 101.554 13.0276 -160.185 -81.0937 -161.428 -171.891 -5.52627 90.7889 -12.4033 -1.05337 -0.273388 69.9725 6.12553 -3.22946 20.5134 -7.24086 7.33821 171.097 -3.71395 86.7628 -15.7484 -13.3771 -1.53853 67.0971 -4.6154 -0.941887 28.4701 -0.400344 2.67408 0.314891 7.60821 -90.0992 11.6582 0.579906 -0.258089 -0.0126685 0.567989 -0.283377 -22.5488 0.630664 -0.071874 -2.53618 0.630666 -0.0718754 90.3034 -30.0883 -106.124 39.7307 -7.22619 -4.29172 5.63184 -32.107 -14.5994 -22.2373 -0.692543 -7.37474 -87.3299 -52.1435 83.087 -26.3401 10.577 -10.0409 -4.03283 6.69603 -0.00826875 4.09119 -0.698453 -19.5131 4.45684 -1.5967 0.0611607 -5.27207 -1.60263 1.27203 
25.2097 101.585 13.2483 -161.257 -81.157 -162.532 -172.078 -6.12624 90.8369 -11.6078 -1.07628 0.0130819 69.6184 5.88729 -3.51609 20.6535 -7.32733 7.70874 170.937 -3.95867 86.8107 -15.7112 -13.1548 -1.33064 67.295 -4.68285 -0.821291 28.2514 -0.318772 2.74335 0.336693 7.60628 -90.0774 11.662 0.633499 -0.220287 -0.00881624 0.623193 -0.247971 -22.5452 0.670413 -0.0197101 -2.53253 0.670414 -0.0197089 90.3519 -30.4234 -105.904 39.6598 -6.92658 -4.30183 6.01411 -31.796 -13.5631 -22.392 -0.315067 -9.65114 -87.4209 -51.4278 82.8354 -25.9585 11.731 -9.40852 -5.1194 4.97444 -0.00824339 6.66629 -0.82777 -16.0064 4.64839 -1.63736 -0.678895 -5.6933 -1.51565 1.35697 
24.875 101.575 13.317 -161.918 -81.3047 -163.243 -172.056 -5.88465 90.9639 -11.7341 -0.637888 0.0719643 69.3824 5.75266 -3.38882 20.9316 -7.4023 8.23766 171.067 -4.01075 87.0043 -15.5936 -12.8666 -1.3315 67.3831 -4.78672 -0.842806 28.2879 -0.343459 2.7863 0.30999 7.57513 -90.1125 11.7244 0.563771 -0.28349 0.0535016 0.550752 -0.308028 -22.4826 0.622907 -0.100937 -2.46992 0.622904 -0.100946 90.2652 -30.1137 -106.191 39.2615 -6.87448 -4.24461 5.79281 -33.4453 -13.813 -22.6776 -0.461067 -9.07375 -87.4605 -52.1799 82.9011 -26.1118 11.1126 -8.76467 -4.65419 5.18097 -0.00824603 5.21689 -0.675256 -16.5604 4.54551 -1.52222 -0.112125 -5.44068 -1.49726 1.11518 
24.6595 101.563 13.3074 -165.708 -81.3132 -167.149 -171.922 -5.7331 91.1268 -12.0729 -0.151551 0.0340518 69.5159 5.82584 -3.56069 21.3201 -7.0813 8.04009 170.84 -4.11183 86.916 -15.7663 -12.4393 -1.11072 67.5528 -4.89564 -0.853019 28.2019 -0.372879 3.11425 0.261327 7.59594 -90.1089 11.6826 0.468736 -0.266101 0.0117266 0.456577 -0.286472 -22.524 0.527043 -0.112919 -2.51141 0.527037 -0.112924 90.349 -30.1602 -106.007 39.2369 -7.00123 -4.29843 5.77499 -31.4692 -14.0768 -22.8659 -0.393154 -8.99555 -87.5181 -52.2041 82.8212 -26.686 10.8559 -8.43324 -4.20766 6.21982 -0.00826097 4.25176 -0.521878 -16.5673 4.45478 -1.68421 -0.375199 -4.94226 -1.60494 1.09517 
24.5084 101.575 13.432 -166.031 -81.0897 -167.655 -171.772 -6.55903 91.2164 -11.4295 0.00156944 -0.117013 69.4035 5.85638 -3.58354 20.8561 -7.2965 7.90559 170.69 -4.32536 86.7503 -15.9405 -12.5443 -1.1187 67.7402 -4.94708 -0.825651 28.3056 -0.390127 2.9786 0.267255 7.60964 -90.095 11.6551 0.487137 -0.240007 -0.0157585 0.476102 -0.26122 -22.5516 0.536745 -0.082498 -2.53897 0.536746 -0.0824983 90.2742 -30.0117 -106.211 39.4169 -6.88977 -4.26287 5.64454 -31.4781 -14.1307 -23.2285 -0.36674 -9.11205 -87.4441 -52.1551 82.9218 -27.2165 10.7667 -8.22202 -4.11238 7.30322 -0.00827951 5.18987 -0.551553 -15.8397 4.52144 -1.77072 -0.20256 -5.37673 -1.72207 0.905188 
